<?xml version="1.0" encoding="UTF-8"?>
<svg width="132px" height="40px" viewBox="0 0 132 40" version="1.1" xmlns="http://www.w3.org/2000/svg" xmlns:xlink="http://www.w3.org/1999/xlink">
    <!-- Generator: Sketch 41.2 (35397) - http://www.bohemiancoding.com/sketch -->
    <title>Spotify_Logo_RGB_White</title>
    <desc>Created with Sketch.</desc>
    <defs></defs>
    <g id="Page-1" stroke="none" stroke-width="1" fill="none" fill-rule="evenodd">
        <g id="Spotify_Logo_RGB_White" fill="#FFFFFF">
            <path d="M31.4119968,17.9996942 C25.0619616,14.2285815 14.5877203,13.8818396 8.52585263,15.721642 C7.55219938,16.0171019 6.52279455,15.4675841 6.22804038,14.4941661 C5.93305097,13.5200423 6.48186301,12.4913432 7.45598673,12.1954128 C14.4148199,10.083204 25.9824509,10.491108 33.2927307,14.8305575 C34.1685246,15.3504352 34.4555159,16.4812279 33.9365792,17.3553752 C33.417172,18.2309339 32.2854383,18.5195719 31.4119968,17.9996942 M31.2040457,23.5852035 C30.7585035,24.3080922 29.8133141,24.5348624 29.0913664,24.0909668 C23.7975532,20.836909 15.7246293,19.894072 9.4613972,21.7952717 C8.64935298,22.0406257 7.79143721,21.5828511 7.54467174,20.7719831 C7.30002343,19.9599388 7.7580333,19.1036697 8.56890132,18.856669 C15.7236883,16.6854152 24.6183013,17.7369325 30.6987528,21.4737003 C31.4207006,21.9183016 31.6479413,22.8639614 31.2040457,23.5852035 M28.7935541,28.9493531 C28.4395197,29.5299224 27.6836976,29.7117619 27.1052455,29.3579628 C22.4792752,26.5306281 16.6566453,25.8921901 9.7994353,27.4584098 C9.13864961,27.6099036 8.47998107,27.1958833 8.32942826,26.5353329 C8.1779345,25.8745472 8.59054329,25.2158786 9.25274041,25.0650906 C16.756857,23.3497295 23.1936953,24.0879087 28.3861205,27.2608092 C28.9650431,27.6143731 29.1473532,28.3706657 28.7935541,28.9493531 M19.7589741,0.535568102 C8.87941649,0.535568102 0.0593742641,9.35537521 0.0593742641,20.234933 C0.0593742641,31.1156669 8.87941649,39.9350035 19.7589741,39.9350035 C30.6390022,39.9350035 39.4588092,31.1156669 39.4588092,20.234933 C39.4588092,9.35537521 30.6390022,0.535568102 19.7589741,0.535568102" id="Fill-1"></path>
            <path d="M53.6553039,18.7217596 C50.2539866,17.9106563 49.6484821,17.3413785 49.6484821,16.1451894 C49.6484821,15.0151023 50.712467,14.2548106 52.2946829,14.2548106 C53.8284397,14.2548106 55.349023,14.8323218 56.9437066,16.0212185 C56.9919306,16.0572101 57.0523869,16.0715596 57.1119023,16.0621501 C57.1714178,16.053211 57.2241112,16.0207481 57.2589266,15.9713479 L58.9197122,13.6302517 C58.9879315,13.5338038 58.9693476,13.4008939 58.8773693,13.3272642 C56.9796982,11.8045636 54.8427892,11.0642672 52.345024,11.0642672 C48.6724764,11.0642672 46.1071977,13.267984 46.1071977,16.4215949 C46.1071977,19.8031522 48.3200888,21.0002823 52.1441301,21.9247706 C55.3988937,22.6744766 55.9481762,23.3023289 55.9481762,24.4253587 C55.9481762,25.6695366 54.837614,26.4430016 53.0500346,26.4430016 C51.0646194,26.4430016 49.4452358,25.7742178 47.6336621,24.2054105 C47.5887314,24.1668313 47.5270989,24.1489532 47.4701711,24.1522465 C47.4101852,24.1571865 47.3553746,24.1849447 47.3172659,24.2308163 L45.4551159,26.4470007 C45.3770166,26.5389791 45.3868966,26.6763585 45.4772283,26.7558692 C47.5849676,28.6375441 50.1772988,29.6314279 52.974523,29.6314279 C56.9321799,29.6314279 59.4892253,27.4691131 59.4892253,24.1223712 C59.4892253,21.2938603 57.7995053,19.7295225 53.6553039,18.7217596" id="Fill-3"></path>
            <path d="M71.3154778,22.5126088 C71.3154778,24.900988 69.8442946,26.5676547 67.7377314,26.5676547 C65.6551626,26.5676547 64.0842382,24.8252411 64.0842382,22.5126088 C64.0842382,20.2002117 65.6551626,18.4575629 67.7377314,18.4575629 C69.8104202,18.4575629 71.3154778,20.1625735 71.3154778,22.5126088 M68.442742,15.3672312 C66.7273809,15.3672312 65.3204179,16.042837 64.1602203,17.4272171 L64.1602203,15.8689955 C64.1602203,15.7459657 64.0604791,15.6457539 63.9374492,15.6457539 L60.8920481,15.6457539 C60.7690183,15.6457539 60.6695123,15.7459657 60.6695123,15.8689955 L60.6695123,33.1830393 C60.6695123,33.3060692 60.7690183,33.4062809 60.8920481,33.4062809 L63.9374492,33.4062809 C64.0604791,33.4062809 64.1602203,33.3060692 64.1602203,33.1830393 L64.1602203,27.717737 C65.3206531,29.0202541 66.7278514,29.6563397 68.442742,29.6563397 C71.629992,29.6563397 74.8565269,27.2027993 74.8565269,22.5126088 C74.8565269,17.8214773 71.629992,15.3672312 68.442742,15.3672312" id="Fill-5"></path>
            <path d="M83.1270749,26.59259 C80.9438239,26.59259 79.2978583,24.8384145 79.2978583,22.5126088 C79.2978583,20.1769231 80.8868962,18.4820278 83.0767338,18.4820278 C85.2738639,18.4820278 86.931121,20.2362032 86.931121,22.5636556 C86.931121,24.8988709 85.3312621,26.59259 83.1270749,26.59259 M83.1270749,15.3672312 C79.0223937,15.3672312 75.8066798,18.5278993 75.8066798,22.5636556 C75.8066798,26.5554223 79.0002813,29.6829217 83.0767338,29.6829217 C87.1959998,29.6829217 90.4215938,26.5328393 90.4215938,22.5126088 C90.4215938,18.5057869 87.2181123,15.3672312 83.1270749,15.3672312" id="Fill-7"></path>
            <path d="M99.18699,15.645801 L95.8355433,15.645801 L95.8355433,12.2193131 C95.8355433,12.0962832 95.7362726,11.9960715 95.6132427,11.9960715 L92.5680769,11.9960715 C92.4448118,11.9960715 92.3446001,12.0962832 92.3446001,12.2193131 L92.3446001,15.645801 L90.8802388,15.645801 C90.7576794,15.645801 90.6584086,15.7460127 90.6584086,15.8690426 L90.6584086,18.4863091 C90.6584086,18.609339 90.7576794,18.7095507 90.8802388,18.7095507 L92.3446001,18.7095507 L92.3446001,25.48231 C92.3446001,28.2193131 93.7068678,29.6072218 96.3935297,29.6072218 C97.4859785,29.6072218 98.3923535,29.3816279 99.2467407,28.8972712 C99.3159009,28.8584568 99.3591848,28.7836509 99.3591848,28.7041402 L99.3591848,26.2115502 C99.3591848,26.1346271 99.3191942,26.0619384 99.2533273,26.0217125 C99.18699,25.9800753 99.1044212,25.9779581 99.0364372,26.0115973 C98.4497517,26.3068219 97.8825911,26.4430252 97.2486226,26.4430252 C96.271676,26.4430252 95.8355433,25.9993649 95.8355433,25.0050106 L95.8355433,18.7095507 L99.18699,18.7095507 C99.3100199,18.7095507 99.4090554,18.609339 99.4090554,18.4863091 L99.4090554,15.8690426 C99.4090554,15.7460127 99.3100199,15.645801 99.18699,15.645801" id="Fill-9"></path>
            <path d="M110.86356,15.6590685 L110.86356,15.2382263 C110.86356,14.0001647 111.338272,13.4480593 112.402963,13.4480593 C113.037872,13.4480593 113.54787,13.5741473 114.119029,13.7646907 C114.189366,13.7868031 114.26276,13.7757469 114.319923,13.7336391 C114.378733,13.6915314 114.411902,13.6240179 114.411902,13.5527405 L114.411902,10.9860503 C114.411902,10.888191 114.348858,10.8011527 114.254527,10.7724535 C113.651139,10.5929664 112.879086,10.4085392 111.723123,10.4085392 C108.909902,10.4085392 107.423193,11.9928723 107.423193,14.9879323 L107.423193,15.6324865 L105.960243,15.6324865 C105.837213,15.6324865 105.736531,15.7326982 105.736531,15.8554928 L105.736531,18.4864032 C105.736531,18.6091978 105.837213,18.7096448 105.960243,18.7096448 L107.423193,18.7096448 L107.423193,29.1563632 C107.423193,29.2793931 107.522464,29.3796048 107.645259,29.3796048 L110.69066,29.3796048 C110.813689,29.3796048 110.913901,29.2793931 110.913901,29.1563632 L110.913901,18.7096448 L113.757467,18.7096448 L118.113384,29.1535403 C117.618912,30.2509292 117.132673,30.4692308 116.468829,30.4692308 C115.93225,30.4692308 115.367206,30.3090332 114.78946,29.9931075 C114.73512,29.9632322 114.670899,29.9580569 114.61209,29.9764056 C114.553986,29.9968713 114.505056,30.0401553 114.480356,30.0966126 L113.448128,32.3612562 C113.398963,32.4682898 113.440836,32.5939073 113.543871,32.6494237 C114.621499,33.233051 115.594447,33.4821689 116.796517,33.4821689 C119.0454,33.4821689 120.288401,32.4346507 121.384379,29.6164902 L126.668076,15.9629969 C126.694423,15.8945425 126.68666,15.8169137 126.644553,15.7559868 C126.60268,15.6955305 126.535167,15.6590685 126.461302,15.6590685 L123.290754,15.6590685 C123.195952,15.6590685 123.110796,15.7195248 123.079744,15.8086803 L119.831803,25.0857916 L116.274287,15.8025641 C116.241824,15.7162315 116.158785,15.6590685 116.066336,15.6590685 L110.86356,15.6590685 Z" id="Fill-11"></path>
            <path d="M104.094282,15.645801 L101.048646,15.645801 C100.925851,15.645801 100.82564,15.7460127 100.82564,15.8690426 L100.82564,29.1562691 C100.82564,29.279299 100.925851,29.3795107 101.048646,29.3795107 L104.094282,29.3795107 C104.217077,29.3795107 104.317524,29.279299 104.317524,29.1562691 L104.317524,15.8690426 C104.317524,15.7460127 104.217077,15.645801 104.094282,15.645801" id="Fill-13"></path>
            <path d="M102.587013,9.59569513 C101.380474,9.59569513 100.40141,10.5724065 100.40141,11.7789461 C100.40141,12.9861915 101.380474,13.964079 102.587013,13.964079 C103.793083,13.964079 104.771205,12.9861915 104.771205,11.7789461 C104.771205,10.5724065 103.793083,9.59569513 102.587013,9.59569513" id="Fill-15"></path>
            <path d="M129.392918,16.96749 L128.834931,16.96749 L128.834931,17.6790873 L129.392918,17.6790873 C129.67144,17.6790873 129.837754,17.542884 129.837754,17.323171 C129.837754,17.0914608 129.67144,16.96749 129.392918,16.96749 M129.75448,17.9825453 L130.360925,18.8312868 L129.849751,18.8312868 L129.303997,18.0528817 L128.834931,18.0528817 L128.834931,18.8312868 L128.407032,18.8312868 L128.407032,16.5816984 L129.41009,16.5816984 C129.932791,16.5816984 130.27671,16.8491649 130.27671,17.2991767 C130.27671,17.6680311 130.063583,17.8933898 129.75448,17.9825453 M129.279297,15.8329334 C128.181673,15.8329334 127.35081,16.7056693 127.35081,17.774359 C127.35081,18.842343 128.175557,19.7035521 129.268241,19.7035521 C130.36563,19.7035521 131.197434,18.8312868 131.197434,17.7621266 C131.197434,16.6939073 130.371981,15.8329334 129.279297,15.8329334 M129.268241,19.9178546 C128.062878,19.9178546 127.124981,18.9498471 127.124981,17.774359 C127.124981,16.5988709 128.07511,15.6198071 129.279297,15.6198071 C130.484661,15.6198071 131.422558,16.5875794 131.422558,17.7621266 C131.422558,18.9378499 130.473134,19.9178546 129.268241,19.9178546" id="Fill-17"></path>
        </g>
    </g>
</svg>